<svg width="192" height="192" viewBox="0 0 465 465" fill="none" xmlns="http://www.w3.org/2000/svg">
  <mask id="mask0_2408_79843" style="mask-type:alpha" maskUnits="userSpaceOnUse" x="0" y="0" width="465" height="465">
    <path
      d="M0 183.584C0 119.324 0 87.1936 12.5059 62.6493C23.5065 41.0595 41.0595 23.5065 62.6493 12.5059C87.1936 0 119.324 0 183.584 0H281.416C345.676 0 377.806 0 402.351 12.5059C423.94 23.5065 441.493 41.0595 452.494 62.6493C465 87.1936 465 119.324 465 183.584V281.416C465 345.676 465 377.806 452.494 402.351C441.493 423.94 423.94 441.493 402.351 452.494C377.806 465 345.676 465 281.416 465H183.584C119.324 465 87.1936 465 62.6493 452.494C41.0595 441.493 23.5065 423.94 12.5059 402.351C0 377.806 0 345.676 0 281.416V183.584Z"
      fill="#C4C4C4" />
  </mask>
  <g mask="url(#mask0_2408_79843)">
    <path
      d="M0 183.584C0 119.324 0 87.1936 12.5059 62.6493C23.5065 41.0595 41.0595 23.5065 62.6493 12.5059C87.1936 0 119.324 0 183.584 0H281.416C345.676 0 377.806 0 402.351 12.5059C423.94 23.5065 441.493 41.0595 452.494 62.6493C465 87.1936 465 119.324 465 183.584V281.416C465 345.676 465 377.806 452.494 402.351C441.493 423.94 423.94 441.493 402.351 452.494C377.806 465 345.676 465 281.416 465H183.584C119.324 465 87.1936 465 62.6493 452.494C41.0595 441.493 23.5065 423.94 12.5059 402.351C0 377.806 0 345.676 0 281.416V183.584Z"
      fill="#EFF3F5" />
    <ellipse cx="38.003" cy="270.503" rx="19.495" ry="19.495" transform="rotate(-88.8388 38.003 270.503)"
      fill="#EF3F6F" />
    <circle cx="419.708" cy="178.149" r="30.1948" fill="#EF3F6F" />
    <path fill-rule="evenodd" clip-rule="evenodd"
      d="M321.425 236.493C329.833 211.029 308.01 175.929 280.872 172.442C259.141 169.651 237.792 190.796 236.271 212.751L233.567 251.798L223.262 225.41C213.147 203.085 183.171 194.36 162.07 207.598C141.972 220.206 139.787 246.687 157.474 263.311L171.857 276.648C174.442 279.078 176.733 281.742 178.693 284.589C116.788 303.336 101.248 353.034 103.89 410.878C107.119 481.601 136.305 537.72 238.947 533.033C341.588 528.346 365.538 469.801 362.309 399.077C360.009 348.708 344.542 305.745 298.75 286.882L321.425 236.493Z"
      fill="#EF3F6F" />
    <path
      d="M267.224 342.146C256.798 342.623 252.979 333.998 252.484 323.166C251.99 312.335 255.007 303.398 265.433 302.922C275.859 302.446 279.677 311.071 280.172 321.902C280.667 332.734 277.65 341.67 267.224 342.146Z"
      fill="white" />
    <path
      d="M-71.748 426.765C-71.748 414.777 -62.0296 405.059 -50.0412 405.059H514.133C526.121 405.059 535.84 414.777 535.84 426.765V547.736C535.84 559.725 526.121 569.443 514.133 569.443H-50.0412C-62.0296 569.443 -71.748 559.725 -71.748 547.736V426.765Z"
      fill="#FFB237" />
    <path
      d="M183.764 403.319C183.764 422.812 168.312 429.203 149.252 429.203C130.192 429.203 114.74 422.812 114.74 403.319C114.74 383.825 130.192 377.435 149.252 377.435C168.312 377.435 183.764 383.825 183.764 403.319Z"
      fill="#EFF3F5" />
    <ellipse cx="348.75" cy="276.282" rx="4.52921" ry="4.52922" fill="#EF3F6F" />
    <circle cx="326.104" cy="286.851" r="3.01949" fill="#EF3F6F" />
    <circle cx="99.2963" cy="313.68" r="5.5805" transform="rotate(-88.8388 99.2963 313.68)" fill="#EF3F6F" />
    <ellipse cx="120.493" cy="313.74" rx="2.6794" ry="2.6794" transform="rotate(-88.8388 120.493 313.74)"
      fill="#EF3F6F" />
    <ellipse cx="403.101" cy="197.776" rx="13.5877" ry="13.5877" fill="#EF3F6F" />
    <ellipse cx="397.062" cy="230.99" rx="10.5682" ry="10.5682" fill="#EF3F6F" />
    <circle cx="73.6555" cy="303.136" r="10.0449" transform="rotate(-88.8388 73.6555 303.136)" fill="#EF3F6F" />
  </g>
</svg>